
<global>
amp_veltrack=0
</global>

<group>
amp_veltrack=0
ampeg_decay=20
ampeg_sustain=0
group_label=Group_0-45
lpc_hicc1=42
lpc_locc1=0

<region>
hikey=C7
hivel=127
lokey=f#6
lovel=1
lpc=fMMvQgiJkcIltJJCQ40dwt0rjEEyPNs/Ae/aQKXAgsHOxsFBSbwowcWuxkD/1Ns/hPnzQKLDgcGoLqtBPOBIwrrjhkKlzmrCaHzfQTP6x8CilNjAENGHPzDg/EAL+xXB
lpc_rms=-20.56
offset=1330
pitch_keycenter=G6
sample=Clarinet_mordent_semitone_PP_G6.opus
tune=-24
</region>

<region>
hikey=a3
hivel=127
lokey=g#3
lovel=1
lpc=oa6zQvKFJcN9S6RCWe+9wYeOZ0Eq+OVAF1m2wDrU7MBMky5BAt7iQK/1KMF4mqZAeDMoQFkmvL+vVOU972YzwYoghkCasIxAr84QwRcVQkA/n8dADx9SwNlh5L6z1dQ/
lpc_rms=-27.34
offset=7453
pitch_keycenter=a3
sample=Clarinet_mordent_semitone_PP_A3.opus
tune=-22
</region>

<region>
hikey=a4
hivel=127
lokey=g#4
lovel=1
lpc=n9PMQulyI8NeSGtC3qwewW+tkUH3gyHB0F+NQCofAb+C3+lAo+ONvy9Bij65ttrA+OjWP3uROkBFCdk+afmswJRrPUDYhpi+hU+WQFd6UcAUJy7Ag+DSQBaOc0BaycbA
lpc_rms=-28.23
offset=5130
pitch_keycenter=a4
sample=Clarinet_mordent_semitone_PP_A4.opus
tune=-38
</region>

<region>
hikey=a5
hivel=127
lokey=g#5
lovel=1
lpc=6gQRQ/hTiMPkxhZDG35dwcmmkEEr1uxAlZt4wYF9ccG+7dFAQ4C4QUUA2MECW7xBOKCSwMgMg8CkYZ1BAC/vwQEQqkGiuZDBl1ATQqsSrsECuJxBiiu1wYRcQ8C5lRpB
lpc_rms=-19.73
offset=2305
pitch_keycenter=a5
sample=Clarinet_mordent_semitone_PP_A5.opus
tune=-38
</region>

<region>
hikey=b3
hivel=127
lokey=a#3
lovel=1
lpc=xkTRQl2ZMcOZvZ9CCI0dwndV90HHDcvALcGCQKb8EkGZs05AZL/oP2muz7+VU6/AhUJLwML2KUBxfo3AXSV5wPoQzb8GKvdABfrlv4OdrkDwE5Y/iJ+YwLip5sDSvfxA
lpc_rms=-27.38
offset=673
pitch_keycenter=b3
sample=Clarinet_mordent_semitone_PP_B3.opus
tune=-21
</region>

<region>
hikey=b4
hivel=127
lokey=a#4
lovel=1
lpc=eMYpQ4z2g8PWYrNCmUULwrybPUIOz8bAGqgYQDvREMFlINxAThlzQXsp8cB8qQrBO/gxwNWmKEFkX0fBtaPVQCTFqkAkn+pA1pMtQFiwfcFuLZtAPY4RQPTGJ8HRLPFA
lpc_rms=-22.97
offset=471
pitch_keycenter=b4
sample=Clarinet_mordent_semitone_PP_B4.opus
tune=-40
</region>

<region>
hikey=b5
hivel=127
lokey=a#5
lovel=1
lpc=I5f4QcSNj8JhtphCY+A0wvXunUGrsJzAyZ/xvxRGcEDgXpVACXqCwNbyhcASzkdBwsXCwCQ6FsA9nchADy9RP5zKEcA2aVc/h4gEQHRKdj6EFdU/XqmQvwMGn8CPYK1A
lpc_rms=-29.61
offset=7727
pitch_keycenter=b5
sample=Clarinet_mordent_semitone_PP_B5.opus
tune=-29
</region>

<region>
hikey=c#4
hivel=127
lokey=c4
lovel=1
lpc=gy5uQvI7/MJ0ooNCP9auwI+rpkHTrAXB2Ob/Pzscg8Fa4QNBbo4eQM2J4L64kmbAWEpwQNFzzMDDYX8/FSYgQFrxD0B66Ke/3LjPQJpDlsD1EZq/SeRqP59tJcEPqBJB
lpc_rms=-27.82
offset=877
pitch_keycenter=c#4
sample=Clarinet_mordent_semitone_PP_C#4.opus
tune=-35
</region>

<region>
hikey=c#5
hivel=127
lokey=c5
lovel=1
lpc=h8onQ5OrcsPkJC5CLXWtwfOBREJiMghCzpmWwbab0UCpZzPB/O9dQcbeFsJcLxNCqK6WwaQ1dMF0HRdBZNW5QXZJgsEuWItB9TdoQQqpQ8GtGCzAItdcwQbo+8GtRBFC
lpc_rms=-23.37
offset=878
pitch_keycenter=c#5
sample=Clarinet_mordent_semitone_PP_C#5.opus
tune=-36
</region>

<region>
hikey=c#6
hivel=127
lokey=c6
lovel=1
lpc=TokYQl+9pMLTHJtC0PgbwgntgUFHcIbAcYh+QLZoBsG7HmJB/Jl7wLhMnsBwp9dAGVrcvvGJUMDm3xtB2/XMwNCG3kBUvxfBa+chQXE8tsDfZN6/Uci7P4gNzEBsbYTA
lpc_rms=-27.30
offset=600
pitch_keycenter=c#6
sample=Clarinet_mordent_semitone_PP_C#6.opus
tune=-39
</region>

<region>
hikey=d#4
hivel=127
lokey=d4
lovel=1
lpc=ftTSQkLJIMMp91RC4yFyweoafkFHEGo+m9KxQNReTMFKCRVBArcHQRY/rsCMPNZAJ15rvzZnacCiqE3AFih9wJIwJ0C2Tw1ABNEKwHCG27/5Nsg/flMXwIcCIsH8dH5B
lpc_rms=-28.91
offset=277
pitch_keycenter=d#4
sample=Clarinet_mordent_semitone_PP_D#4.opus
tune=-35
</region>

<region>
hikey=d#5
hivel=127
lokey=d5
lovel=1
lpc=HiY8QiQbl8LbpwRC77YiwQgVoUC10oZApxwqQJ9idMDeeIRAL6IDwenY+EBaYRrA3BsPQKK3q8D1qyi/6LQOQZATr7+eWgy/EIQawHuuO0AG73PAvxEMQOaJKcDo1URA
lpc_rms=-31.77
offset=6778
pitch_keycenter=d#5
sample=Clarinet_mordent_semitone_PP_D#5.opus
tune=-37
</region>

<region>
hikey=d#6
hivel=127
lokey=d6
lovel=1
lpc=ztoZQhEUscITfadC2NT5wdag80ASiOrAVgMUQbau4MDO8mNBQ6BVwUS6GEG97dW+OL4UQE2o7L43A9A/Uu83Pie4uL7c2fs/ycqGwPkdrUCbuCBBwOXAwf57m0EJ3KXA
lpc_rms=-24.71
offset=1753
pitch_keycenter=d#6
sample=Clarinet_mordent_semitone_PP_D#6.opus
tune=-47
</region>

<region>
hikey=f4
hivel=127
lokey=e4
lovel=1
lpc=cy/SQse3HcMWs3RC9irVwdnIlEEiPOTAFS6bQcyJg8HHqLE/NnAIQZ3YuMB2GAhBp/6zPyddasCGPSnAPdeEwMrXBEDt6ndA7utSwN0IvD2dsxW/2ME4v3hJ3MAQu0JB
lpc_rms=-28.63
offset=476
pitch_keycenter=f4
sample=Clarinet_mordent_semitone_PP_F4.opus
tune=-19
</region>

<region>
hikey=f5
hivel=127
lokey=e5
lovel=1
lpc=J3iIQoK9BcOynqRCeZilwX7qN0E2rUA/Y9ZgwIn2dMBg8AZB3qM/wM9moMDRwec/IF+EQFDJgL8xvgc/pMuCwHKSgkBlG0NAJmFSwPl5qb81SAtAWTzuvzgaBUH268nA
lpc_rms=-30.14
offset=2074
pitch_keycenter=f5
sample=Clarinet_mordent_semitone_PP_F5.opus
tune=-44
</region>

<region>
hikey=f6
hivel=127
lokey=e6
lovel=1
lpc=yzwIQjNFbsJsm0hCYVuBwRAv+0DtPKW/52s4QANdkL+ww9xAiTmIQDcBxsCpAV9BUGJjwBk9bL+K1kJBQ0iAwE43xsBb58HAEG8TQrpKGsKtH9JB7P6iwcjhiUFSX5vA
lpc_rms=-23.28
offset=1743
pitch_keycenter=f6
sample=Clarinet_mordent_semitone_PP_F6.opus
tune=-38
</region>

<region>
hivel=127
key=g3
lovel=1
lpc=l2SsQmWcH8MK+NVC1ywlwgVzWkD00a3A1qAAQVV49cBEvQNBiRNtQDOznz4biElAE9GVwMoNTkCwbU9AISv2wIKQqr/HyxJAYRrcwN93nz/kXnBABim/wLWb0EC+xM0/
lpc_rms=-27.80
offset=490
sample=Clarinet_mordent_semitone_PP_G3.opus
tune=-16
</region>

<region>
hikey=g4
hivel=127
lokey=f#4
lovel=1
lpc=JsfXQijAPsMD/bZCh7aMwbjblkH6lDzBhm5cQTpMlMG74kdB9GPLQK/3LsFuIZZA2MViv0CUPz+DVSC/QzMDwYWhGUAr7ntAwqEmv6Hadb4CBsG/rTcwQJ1+gEAunnW/
lpc_rms=-27.11
offset=615
pitch_keycenter=g4
sample=Clarinet_mordent_semitone_PP_G4.opus
tune=-21
</region>

<region>
hikey=g5
hivel=127
lokey=f#5
lovel=1
lpc=way1QjrVXcOPX1hDVnThwp82QUL7tPjATvqOwRKVX0Cypq5BtVKSwWvS0z9fFD1BciXBwMQDB8GcjTpBrDvwwNqW9UBHwhBAk3APwe8zdkBPJmRAQiTBwEloN0HJRP3A
lpc_rms=-22.98
offset=5783
pitch_keycenter=g5
sample=Clarinet_mordent_semitone_PP_G5.opus
tune=-45
</region>
</group>

<group>
amp_veltrack=0
ampeg_decay=20
ampeg_sustain=0
group_label=Group_46-90
lpc_hicc1=84
lpc_locc1=43

<region>
hikey=a5
hivel=127
lokey=g#5
lovel=1
lpc=EiudQgTOOMMiMj5DUXjHwu9xzkHz31RBJFs/wcICHcGrl9tBWR+JwcdEj0Bu7IQ/jpQMQY/+bsELGqxBM1EUwZD//cCnJ51BhVuNwSpGMUELbvFAzIklPgQgVMF/hvVA
lpc_rms=-14.27
offset=742
pitch_keycenter=a5
sample=Clarinet_mordent_semitone_MF_A5.opus
tune=-30
</region>

<region>
hikey=b5
hivel=127
lokey=a#5
lovel=1
lpc=r8ymQffTH8JikhJCSR98wQBSA0GjmcvAC58uQfnBI8GvbglBOm5XQOhV1cAkWJ5As4g7QFf4bMBX5QZBdsi+wBv3L0CRCB5A5/YjQO81UcDmCFtA+TNXQLFF/8A47KtA
lpc_rms=-21.92
offset=8260
pitch_keycenter=b5
sample=Clarinet_mordent_semitone_MF_B5.opus
tune=-31
</region>

<region>
hikey=c#6
hivel=127
lokey=c6
lovel=1
lpc=B9PtQaI4aMKi3mNCY0/pwexOGUFHu6A/upIEQfO6ecF1RKtBz/1bwSwR4UC8v2BASXGev9N0Iz4O56BA3Am3wNjEXkGBGkzBitYcQUFedkDI4o7B46dWQaJkrz+QNSHA
lpc_rms=-17.14
offset=179
pitch_keycenter=c#6
sample=Clarinet_mordent_semitone_MF_C#6.opus
tune=-37
</region>

<region>
hikey=d#6
hivel=127
lokey=d6
lovel=1
lpc=uXZNQr60zsIdL6JCwZQjwbbCVsBFpyTB4rK+Qc6AvcFMXuFB6VY4wQzviUAkMRNB+xa9v4PnmkA4HIe/pPA6QR/9CcFmH6RBSrP3wWozqkCxvlVCXM06wua0LT/IFHZB
lpc_rms=-15.80
offset=562
pitch_keycenter=d#6
sample=Clarinet_mordent_semitone_MF_D#6.opus
tune=-38
</region>

<region>
hikey=f6
hivel=127
lokey=e6
lovel=1
lpc=VfsrQlT1e8JtEHVCm+n7wVMBpUFmlCbAQI4EQTrGrUBaRwVBn7yIQOqtwUDCEBBBUdolQHpwFEEGOhxAzx1qQQUfnME22JlAplT3QS+DB8JVRv9B6S2Lwf7YVUGZVJbA
lpc_rms=-13.71
offset=13938
pitch_keycenter=f6
sample=Clarinet_mordent_semitone_MF_F6.opus
tune=-44
</region>

<region>
hikey=C7
hivel=127
lokey=f#6
lovel=1
lpc=AU87Qm3qg8I4RaBComsmws7IwEHZ5xZBBxg2QC+wm0FHWFO9zSiXQXIhqD9q97lBKY9CPQ6OpEHMuUo/zAGvweKvfUKYRmrCBMc4Qv3AB8GZItm+lpgCQUhHncDztrBA
lpc_rms=-13.13
offset=87
pitch_keycenter=G6
sample=Clarinet_mordent_semitone_MF_G6.opus
tune=-36
</region>

<region>
hikey=a3
hivel=127
lokey=g#3
lovel=1
lpc=tBOVQpbLYcOpunxD510Aw1ahMEKV8ADCCH2TQU/WCsENbnZBpLCGwIC1dcE3vEhB7MZLwdfsYEFf8No+yAkJwTAj20A2hxK+aK4Pwb9o9z9reYBBEyCAwT4G8D/lIRdA
lpc_rms=-17.98
offset=1060
pitch_keycenter=a3
sample=Clarinet_mordent_semitone_MF_A3.opus
tune=-5
</region>

<region>
hikey=a4
hivel=127
lokey=g#4
lovel=1
lpc=XLEWQl4O2cIh3P1CIJGOwue5oUEvsBrBYT5mQZZTrMGFcs5BjqR5wUfQAb99EwtBIu4AwS/yrTxgN7M/f24FQd+KQ8HSX/lAhuVEwNorTL88aoy/VYs8QQNXgsESLQNB
lpc_rms=-17.45
offset=905
pitch_keycenter=a4
sample=Clarinet_mordent_semitone_MF_A4.opus
tune=-17
</region>

<region>
hikey=b3
hivel=127
lokey=a#3
lovel=1
lpc=K9qBQnbpPsNbTUVDgiiCwr/lZ8GRvpc/rwcLQR8UHsAZ8QhAQ5HwQNqhIcGHJQjBhneEQRKS5MCyQVA/UuQBwfdbSEG0qRlALUoowRx1JMDaMShBT2k5wDvZb8D59BRA
lpc_rms=-18.69
offset=1266
pitch_keycenter=b3
sample=Clarinet_mordent_semitone_MF_B3.opus
tune=-8
</region>

<region>
hikey=b4
hivel=127
lokey=a#4
lovel=1
lpc=jRqhQvynTcN3BmVD8TQXw+/DsUKLjXPCCEJBQumKRMLmZ1dCQp03wlq2fUEBaEpBHyOcwfEEmkEFBLfBU2s+QewBOUGeVIPBN0t3QG1DjUC7/BjA8U4WQflKaMEDQyhB
lpc_rms=-15.18
offset=562
pitch_keycenter=b4
sample=Clarinet_mordent_semitone_MF_B4.opus
tune=-29
</region>

<region>
hikey=c#4
hivel=127
lokey=c4
lovel=1
lpc=FUVEQgg1CsNUPQZD5ok+wi9SOkGV/pbB3u91QeYpYsHeGDxBYZA1Qcxr08GkJlFBdXOAwAvhoUBNDnXAyDeTQLhdk8DcnohAQO2PvkVrBsFsl+ZAR42AQHBvA8E8nFNA
lpc_rms=-20.44
offset=1224
pitch_keycenter=c#4
sample=Clarinet_mordent_semitone_MF_C#4.opus
tune=-18
</region>

<region>
hikey=c#5
hivel=127
lokey=c5
lovel=1
lpc=AY+PQvlyJcMSgxRDdH99wgZ0nUFq7DPB9XhSwPcKLkFuK4vA3EeWwIUzZUFmZoHBfrMPQXMCw8DesmFA78tVQJMGMsEG2EhBKFG9P3+9jb/EqB/Bp3VlQUKedMBHRTXA
lpc_rms=-15.72
offset=700
pitch_keycenter=c#5
sample=Clarinet_mordent_semitone_MF_C#5.opus
tune=-18
</region>

<region>
hikey=d#4
hivel=127
lokey=d4
lovel=1
lpc=toR9Qs0WLcMkri1DBNeowgP6HUL95sXBO94aPyhNFkBgU9hA6LqYQImEd8Ff6T1BQJlYwQnnP0EH8rO+uoW2wEKP6UCWDAHAodEbwbSCMUG3opTAsbOFQIchFcFqvc9A
lpc_rms=-20.84
offset=452
pitch_keycenter=d#4
sample=Clarinet_mordent_semitone_MF_D#4.opus
tune=-17
</region>

<region>
hikey=d#5
hivel=127
lokey=d5
lovel=1
lpc=5MGuQfjHb8JBXZRCn49VwlURxEGbGN/A4myDQHUX9cCAvBhBgtqgwJ8nOr/4CbhAi68UwQIX3ECH3xfAjDIbQO8AO8DzHK9Aux/ewCwAr0AFsLS/TODNvnHHwL998Q9A
lpc_rms=-19.17
offset=10164
pitch_keycenter=d#5
sample=Clarinet_mordent_semitone_MF_D#5.opus
tune=-31
</region>

<region>
hikey=f4
hivel=127
lokey=e4
lovel=1
lpc=Ai6eQp1gZcPAmYNDNDgmw+RttEKE3AvC1SbGwZQtm0E7CqxBkLB7wWdMusDGj/tAkGBhwQifS0EaKp1Ar/bKwCn4H8CQC4NA5QlVwVHvxEGYJQLCs9JJQgOrV8JWsLtB
lpc_rms=-17.65
offset=477
pitch_keycenter=f4
sample=Clarinet_mordent_semitone_MF_F4.opus
tune=-21
</region>

<region>
hikey=f5
hivel=127
lokey=e5
lovel=1
lpc=yCaEQjY8KMOOEUFDQXv4wksrU0KP6oPBkoxwQUr6mMGkOGpB6xSawDdL3EB62wLAc7olwX33LkEztAtBCaVnwesxez/9XcBBkmD2wcpcR0FvxNRAPLUUQVTa38EymJ1B
lpc_rms=-13.97
offset=606
pitch_keycenter=f5
sample=Clarinet_mordent_semitone_MF_F5.opus
tune=-31
</region>

<region>
hikey=g4
hivel=127
lokey=f#4
lovel=1
lpc=uxZuQtFUH8OSACxD5R+1wr9yuEEroRPBiIxOQSrV6MBr/rbA53FuQUo5qMFY3cBBzdYYwfh5Q8FxA4RBD85AwBW4TcEpcEVBUcMPQLzqusAWMQ7B1LjGQZcM3ME1WmBB
lpc_rms=-17.77
offset=731
pitch_keycenter=g4
sample=Clarinet_mordent_semitone_MF_G4.opus
tune=-18
</region>

<region>
hikey=g5
hivel=127
lokey=f#5
lovel=1
lpc=Cr3YQYNIbMLGKXhCWGQbwvz7hkH+L7W/NhTBP5qaBMFbVxhBPJilPrtpAD6UrLjAngYTQZYnuMAdg3NAm5TLv+AODUDx7xe/KLDwPhudrT+yRMhA/yhvwb6maUEg9mLA
lpc_rms=-20.47
offset=2342
pitch_keycenter=g5
sample=Clarinet_mordent_semitone_MF_G5.opus
tune=-37
</region>

<region>
hivel=127
key=g3
lovel=1
lpc=+qx5QuT+NMMHP1hDr2AawzmmnUJ3VKjBF2CUP/Vmv8BxhF1AwTY+QOEyacCuitg/aMg2vzCHPMBurdtAM5UnwfAgzEBJjQtB+qQ/wVCt40AOPt/AgsSmvotDpUD+SZ+/
lpc_rms=-20.86
offset=1487
sample=Clarinet_mordent_semitone_MF_G3.opus
tune=+5
</region>
</group>

<group>
amp_veltrack=0
ampeg_decay=20
ampeg_sustain=0
group_label=Group_91-127
lpc_hicc1=127
lpc_locc1=85

<region>
hikey=a5
hivel=127
lokey=g#5
lovel=1
lpc=nbylQU+DAMIgzQdCJEqpwcWThkEWAtvA0m3oQN3zH8GhypdBwXglwUqbiECWEihA5mWkPwLvqT+PlIBACAM5wPt+k0AmQq0+7j/YQHNV3cDrD9VA6nQXQG5cCz5qpzNA
lpc_rms=-10.39
offset=678
pitch_keycenter=a5
sample=Clarinet_mordent_semitone_FF_A5.opus
tune=-24
</region>

<region>
hikey=b5
hivel=127
lokey=a#5
lovel=1
lpc=ESdDQeIWlcHjRrpBNM57wc+bPUHZaYXAMvvdQO4dBcEqzURBc4rMwESKqEBUcQzAQifwQFlGCsGK11NBRa39wE9f10Cj5VHAevIEQeYy2cD32fRAv1zHv+fZID/Cizm+
lpc_rms=-12.32
offset=5840
pitch_keycenter=b5
sample=Clarinet_mordent_semitone_FF_B5.opus
tune=-21
</region>

<region>
hikey=c#6
hivel=127
lokey=c6
lovel=1
lpc=8JZmQXx6scHwP8JBFoaJwXR0dUHm7xfBbOcYQTmezMB86e9AgRI1wOg4rT/KeHpA+NsmwCa9fkDlYNy/g9aTQDaUSsA1QcBAcFGGwP2JrkDICEDAK1iewPWM+kAqkXLA
lpc_rms=-12.35
offset=12376
pitch_keycenter=c#6
sample=Clarinet_mordent_semitone_FF_C#6.opus
tune=-37
</region>

<region>
hikey=d#6
hivel=127
lokey=d6
lovel=1
lpc=zizcQaZeC8IfSPRBmWqEwdGKU0HUX0TAPzI6Qa3HBMGaxItBe/TCwNeohUAZZuVAsrcBQDguAUC5AZJATSpkQMZQgkB85k1Awp1awA9VAsFH5KdB7rhvwSdYRkE+wmHA
lpc_rms=-9.84
offset=15685
pitch_keycenter=d#6
sample=Clarinet_mordent_semitone_FF_D#6.opus
tune=-31
</region>

<region>
hikey=f6
hivel=127
lokey=e6
lovel=1
lpc=07ArQsp2fcJmv4NCBHXwwZcGpEENaWNAOrebQbg/hcHRKgNCZmdiwGtojkFz6PNABsJgQTKNBEGeNAZBdBS1QTY9e8FBp5xA1isdQowe8sFdpr5BUVWrQNA3RsGB4ItB
lpc_rms=-8.88
offset=950
pitch_keycenter=f6
sample=Clarinet_mordent_semitone_FF_F6.opus
tune=-29
</region>

<region>
hikey=g5
hivel=127
lokey=f#5
lovel=1
lpc=sQluQXL/98EzZBdCmW35wQV7qUFT8ebA762lP3GDecAL1kVBbhhbwTNXL0HUVDHA5GINwCjEpUDbeJ2/objzv0wesUBspnHA971vP9qieUDNYmzApbG3QDq9ysCfgrRA
lpc_rms=-12.16
offset=249
pitch_keycenter=g5
sample=Clarinet_mordent_semitone_FF_G5.opus
tune=-34
</region>

<region>
hikey=C7
hivel=127
lokey=f#6
lovel=1
lpc=7HUAQsbEH8JiSDRCK7uPwcsQnUHD2Z1AHgdSQc2aHsA2q7RB4y9VQCm5g0FHg0BB0FAcQZ33TEGHhR9BhuRowQiWJ0JT8KvBKquWQfve9L7ZPUdAmqnsP36WDEF3ISPA
lpc_rms=-11.65
offset=134
pitch_keycenter=G6
sample=Clarinet_mordent_semitone_FF_G6.opus
tune=-33
</region>

<region>
hikey=a3
hivel=127
lokey=g#3
lovel=1
lpc=nmIKQnD8zsJKyvlCk2Shwkwg9EHKNRjAhHOrwDEodL9s9l5A0naoQGkuz8ATZTjA6t95QL81aD+bo3K/HCuhv12GOD/rCHNA/i78wCQPCEHYKpfAiWzTv8rBY0DchJu/
lpc_rms=-14.99
offset=838
pitch_keycenter=a3
sample=Clarinet_mordent_semitone_FF_A3.opus
tune=-7
</region>

<region>
hikey=a4
hivel=127
lokey=g#4
lovel=1
lpc=mNS9QfRVacJt0WpChy4KwudSuUFQv5fBPk2JQa8iwsGk+aFBZdlJv4+tIMFf7ClBIDwZwdAGHEAB3ppAHo4FwBrcjcDdltFAc7GzwI/JoECYi/nA9YJHQd/IOcEeBbVA
lpc_rms=-15.99
offset=289
pitch_keycenter=a4
sample=Clarinet_mordent_semitone_FF_A4.opus
tune=-21
</region>

<region>
hikey=b3
hivel=127
lokey=a#3
lovel=1
lpc=HaUSQvjH4sIvOxBD5FrDwoOFEUKbtrLAsgc7QO/QQ8EMN4RBGghCwdBO5EAbTiHAUWY/QKFZRMHWH3xBiN/bwIJhesCsS0tBKrd+wUc9GUEs+FvAbAKxQM9R68CrGUlA
lpc_rms=-15.43
offset=1455
pitch_keycenter=b3
sample=Clarinet_mordent_semitone_FF_B3.opus
tune=-9
</region>

<region>
hikey=b4
hivel=127
lokey=a#4
lovel=1
lpc=7I8hQkifsMKpWqNCqY4hwqUE4kHkBMjBVR8MQWhzWcD0lLlAUAQKwEGgBEDaGajADXGhPvcBwkDgv6DAJ9rYP4fU7b936bY/zstEQBK7D8Fz3hJB3jysQHXRb8Gr+DlB
lpc_rms=-14.19
offset=181
pitch_keycenter=b4
sample=Clarinet_mordent_semitone_FF_B4.opus
tune=-12
</region>

<region>
hikey=c#4
hivel=127
lokey=c4
lovel=1
lpc=Zb3PQewzocIxOtNCea+ZwluACkJsEkTB1PgHQeZGMMEiTi1BX7U7wDe0vMDW8apAKa3zPxwMzcDqPLpAo7HBwLZLy0AmLxPAmSiCwPc+AEHjidzAGxmYQDniZsDLhLs/
lpc_rms=-18.31
offset=562
pitch_keycenter=c#4
sample=Clarinet_mordent_semitone_FF_C#4.opus
tune=-22
</region>

<region>
hikey=c#5
hivel=127
lokey=c5
lovel=1
lpc=s+MzQqfcysKmrtpCl/OUwhcmCELonkjAQYNkwcDODkF3iVM/fffXv3/bnMB+r4dBUUazwewUkEH8b0/ByocUQejpMMH5CW1BHjr8wDZPLz8CRhlBneaOwbDWy0FUVGTB
lpc_rms=-13.36
offset=206
pitch_keycenter=c#5
sample=Clarinet_mordent_semitone_FF_C#5.opus
tune=-21
</region>

<region>
hikey=d#4
hivel=127
lokey=d4
lovel=1
lpc=YVrTQc8LlMIeQKRC5b5HwrhR70FPm+vB/5bXQS4To8GefjpB8unfPukt68AU35ZAL844vuiXRb9WTKY/HLz6v4fuRsBWgxZBExaiwHOM+7+UlQG/M+efQPWnpsD6WR1A
lpc_rms=-18.75
offset=1378
pitch_keycenter=d#4
sample=Clarinet_mordent_semitone_FF_D#4.opus
tune=-22
</region>

<region>
hikey=d#5
hivel=127
lokey=d5
lovel=1
lpc=FmtdQXk+08ElxOtB3k27wYZJbEEMsNDA6WsRQEgotcBRcBdBiy4PwRst2UAwO1LAeptfv9SbwD+6Hsk/8yl7wKB+UUAT9bA+OzkaPjjjaz+WNWBAMtjNwMPws0Ce9CLA
lpc_rms=-15.00
offset=806
pitch_keycenter=d#5
sample=Clarinet_mordent_semitone_FF_D#5.opus
tune=-30
</region>

<region>
hikey=f4
hivel=127
lokey=e4
lovel=1
lpc=NTH5QXZpvcLqY/NCCba6wvACdkJGcC/CyOz0Qbgt6sEKYQJCG6yuwZV2MkB1OUpBUWOmwaz3lUEr/ETBZDHDQD6kbz8wAJk+5OI7wcqCk0G7lJfBYG+1QZZVqcEkVQlB
lpc_rms=-15.69
offset=3727
pitch_keycenter=f4
sample=Clarinet_mordent_semitone_FF_F4.opus
tune=-22
</region>

<region>
hikey=f5
hivel=127
lokey=e5
lovel=1
lpc=OcLPQS5vfcKYkKBCk/WQwlM0T0I+XK7BsfSXQFtOlsCzUgxBbSgUwbSCKEH8uwnBpXeiQJWBecB7CNBA8kF5wISlxrssC6hAwd4kwYAYnkGxI7rBUoWYQR/vNcFz6bBA
lpc_rms=-10.41
offset=11396
pitch_keycenter=f5
sample=Clarinet_mordent_semitone_FF_F5.opus
tune=-33
</region>

<region>
hivel=127
key=g3
lovel=1
lpc=ssoVQgIY8MLcex9DHyXkwgI3OkLrQ5LAsIRtwZtod0HtAi7ArzzYvzx7WsBlIqBAOg/xwN1VJkE4HWzA8CwkwTHxSEGI6OY/5SlnwYHcc0Eze+rALkkov3sXlT9k9LQ+
lpc_rms=-15.66
offset=1456
sample=Clarinet_mordent_semitone_FF_G3.opus
tune=+8
</region>

<region>
hikey=g4
hivel=127
lokey=f#4
lovel=1
lpc=GVUAQrPEqcIcR8VCGReSwoYVPkLmI/TBwDqxQXI65MFfiNlBl5rRwJXLQcHuHK1BtmSnwTbzDUFbL45AyWbfwF+S8L4wfpNAvEAmwBaZVz8dONrAL/uJQd2tj8GDfgNB
lpc_rms=-15.49
offset=608
pitch_keycenter=g4
sample=Clarinet_mordent_semitone_FF_G4.opus
tune=-21
</region>
</group>

<group>
amp_veltrack=0
ampeg_attack=2
ampeg_release=0.35
group_label=PP
lpc_hicc1=42
lpc_locc1=0
volume=-5

<region>
hivel=127
key=D#6
loop_end=266428
loop_mode=loop_continuous
loop_start=71957
loop_xfade=23564
lovel=0
lpc=mruXQywsIMRYYRNEHwukw/6piEObvYvDcpp6Q/KhPcOoFR5DadOiwn6RjUEMkFFCJ0Rcwki8dEIlCBTCSKmgQYhks0GeKSbBsEk1QvrKjMNBHcNDfrz8wpPDuMJez39C
lpc_rms=-10.36
offset=423
sample=Clarinet_sustain_PP_D#6.opus
</region>

<region>
hivel=127
key=E6
loop_end=259155
loop_mode=loop_continuous
loop_start=69993
loop_xfade=22921
lovel=0
lpc=CIr8QyaDhMTft2dELcq+w4Lcx0JUaUvCPHjQQqDt/cK/eANDjw4QwgAxMsIS+CBC14z2QWE6ZMLFA3NC1QutwU3IBMK/e7dCbG7ywyobPkS2FtXDYeVLwi1JKEMI8qbC
lpc_rms=-8.34
offset=2053
sample=Clarinet_sustain_PP_E6.opus
</region>

<region>
hivel=127
key=F#6
loop_end=266807
loop_mode=loop_continuous
loop_start=72060
loop_xfade=23598
lovel=0
lpc=f5GeQ9itHMTfJwdEciJ3w4ITD0PUmy7CncJ1wreERELAw2hCGr08wsorC0IJc87B/ZFDQaj9qUAOS4XBfOJBQt9PpMMKQORDIoBLw379u8IBiBBDRSxSwy92d0PY+BHD
lpc_rms=-13.02
offset=1009
sample=Clarinet_sustain_PP_F#6.opus
</region>

<region>
hivel=127
key=F6
loop_end=273748
loop_mode=loop_continuous
loop_start=73935
loop_xfade=24211
lovel=0
lpc=MqZWQ0idzMMCpLZDZnlIw2qozkLkTjbCXbH5Qduwc8EZArlAow0nQf2f1cFNXhRCvgwMwnvo0EG30ojBVm6KQWxWTcEl0yvDPzGLQ6mFJ8P4bqxBWA5AQXGjQ8GRTnvA
lpc_rms=-15.82
offset=1845
sample=Clarinet_sustain_PP_F6.opus
</region>

<region>
hikey=C7
hivel=127
lokey=G6
loop_end=252796
loop_mode=loop_continuous
loop_start=68276
loop_xfade=22358
lovel=0
lpc=Sm4FQ4CKOcONxtRCDJNzPza+mUBsrijA0vtdQWCC+cG1NTNC89nYwJBGpT+rt76/Jw4GQcHRhsGIkRZC0RcTw/K0+EJyHszA2rOBwj1CeUGjnPY/N7C0wcrFIEJQQyHC
lpc_rms=-18.51
offset=197
pitch_keycenter=G6
sample=Clarinet_sustain_PP_G6.opus
</region>

<region>
hivel=127
key=A#5
loop_end=259898
loop_mode=loop_continuous
loop_start=70194
loop_xfade=22986
lovel=0
lpc=qv5NQyFAxMNdOrdDWPlAw2E8hkLRQg/CKu1fQnaxU8KT8QdCQguzwCYBjMHsCPlB7TN0wQOVH0BJAFhB+EubwZKflEHp3WrBWAaoQciVPMCCi9vATX67wYy8r0LPsKvC
lpc_rms=-18.28
offset=8364
sample=Clarinet_sustain_PP_A#5.opus
</region>

<region>
hivel=127
key=A5
loop_end=275299
loop_mode=loop_continuous
loop_start=74353
loop_xfade=24349
lovel=0
lpc=JvcGQ6PKgMOZxj1D+GClwjn1NkJf1T/B3Cnav0E9eMHTYWdBkRifP2LPacBxzIU/I95Wv3+V0b+Unh5BOiYkwbHJfEBAY5s9ZCDNvb0qBcGZW45BUKpwwU2e50FGIAfC
lpc_rms=-23.82
sample=Clarinet_sustain_PP_A5.opus
</region>

<region>
hivel=127
key=B5
loop_end=283358
loop_mode=loop_continuous
loop_start=76530
loop_xfade=25061
lovel=0
lpc=sLxiQ9UL+8Pio+pDhMFlw/LUhkJe+/jBCEwnQhSoUcJLCC5CIqddQKX8LMJY0fpBQnjDQfTMdsI9SlJC1spiwbAaC8FAmmtBB76EwWN2bUFYuYLBOv6kQopKH8ONKJtC
lpc_rms=-16.59
sample=Clarinet_sustain_PP_B5.opus
</region>

<region>
hivel=127
key=C#6
loop_end=256448
loop_mode=loop_continuous
loop_start=69262
loop_xfade=22681
lovel=0
lpc=lNseQ7aKjcPAWmlDSUz/wjb6dEIpr6/B0NkJQQkFNcG1+4ZBYamGwDppy8CfyfNA3BJ7v8nghT6qCTlBwNLLwWLq3UG0/ALBLbuvwIM7L0G+PCdAjezEwrMYxELqBc7B
lpc_rms=-21.66
offset=1128
sample=Clarinet_sustain_PP_C#6.opus
</region>

<region>
hivel=127
key=C6
loop_end=254878
loop_mode=loop_continuous
loop_start=68838
loop_xfade=22543
lovel=0
lpc=VhsgQ0YrkcP+fHlDdrcQww6YwkLt0L7CBC6rQilzcMKH8+1BbPRSQW8tHcKb0AFCWhfbwL22Z8FYEgJCdIT6wXC4V0HvRAlBeX32weSbhEJ8EKbCtw6KQkAGusJUcDFC
lpc_rms=-19.36
offset=140
sample=Clarinet_sustain_PP_C6.opus
</region>

<region>
hivel=127
key=D6
loop_end=229508
loop_mode=loop_continuous
loop_start=61986
loop_xfade=20299
lovel=0
lpc=kxSkQ7zWKcS5RxhEiLu/w15xkUMpwDzDdmP7QhX9zsLP/pRCMS8KQW86IcIUufpBq3MtwbNDPMFHXG1CH81ZwnD2EkLLLr7BjqopQR9jLUI5NYLD1V2eQzavr8JLx/nB
lpc_rms=-11.98
offset=2360
sample=Clarinet_sustain_PP_D6.opus
</region>

<region>
hivel=127
key=G#5
loop_end=275774
loop_mode=loop_continuous
loop_start=74482
loop_xfade=24391
lovel=0
lpc=4MgyQ4BUs8OtkotDZokMwxRlokLn0nzBoGMdQFAABcI0vf9Bq9JFwUOIucC+Xz9Bxb9rQNYTj8Ew2uxBw5+xwY6oEEFhJcO9LE4ZwYlQ/sDy1vtBf6kKwhAPg0IhrlvC
lpc_rms=-19.94
offset=18160
sample=Clarinet_sustain_PP_G#5.opus
</region>

<region>
hivel=127
key=G5
loop_end=273255
loop_mode=loop_continuous
loop_start=73801
loop_xfade=24168
lovel=0
lpc=XrsrQ5lq3sMv3+9DI5qBw5b2skJpb+3B/HBHQQS9mMFSDwBCuZVXwcaVX8Dp7v1ADhzrQEg5mMGfPKtBEpLNwBMY28DwNnlBnQIeQHYimsFHkwZCcaB+wiT+pEI8bgzC
lpc_rms=-17.36
offset=3219
sample=Clarinet_sustain_PP_G5.opus
</region>

<region>
hivel=127
key=C#5
loop_end=284826
loop_mode=loop_continuous
loop_start=76926
loop_xfade=25191
lovel=0
lpc=mIQgQ1sanMPRbENDNvZ+wt9RSEKKurzBE7oIQaqdKMGTmbhBkffnwfHZUkFdgK7AfuuHwNBfhUAi9nY/gDzhQJcGJcCa0YHAUGQrQZmlH0HNi5XBFbZiQUkGtsFSm4hB
lpc_rms=-21.19
offset=7557
sample=Clarinet_sustain_PP_C#5.opus
</region>

<region>
hivel=127
key=D#5
loop_end=264960
loop_mode=loop_continuous
loop_start=71561
loop_xfade=23434
lovel=0
lpc=mV5RQqLIz8Il/pFC1JXTwUBhLkGrUAjA/2zwQEIQPsGMWTBBgT4DwE8IUMDveEq/3EpLPiEQnz6R/jVAzg/kvQY0BL8LKUFA91gEQBryEsBUe22+lMv2P1W2X8FNSWpB
lpc_rms=-31.60
offset=602
sample=Clarinet_sustain_PP_D#5.opus
</region>

<region>
hivel=127
key=D5
loop_end=263749
loop_mode=loop_continuous
loop_start=71234
loop_xfade=23327
lovel=0
lpc=fqqUQkQeNsOTCx9DxBVxwuBJ5UFpqb3BuX4kQatxGMFMDZRACl04QY6gG8HDIqg/DWm6wFyNLEAqGjNBq/UDwTpaFsC6A2xAPLPiPhdwzb83dMNA1BdQQGxor8FjYYBB
lpc_rms=-25.97
offset=1227
sample=Clarinet_sustain_PP_D5.opus
</region>

<region>
hivel=127
key=E5
loop_end=278751
loop_mode=loop_continuous
loop_start=75286
loop_xfade=24654
lovel=0
lpc=UQaFQ7hdB8Sdh7xDnkPcwkqSMUJYqbbB0dj7QSGNxcEzTR9BaCATQFBgZsGgyILAMlPjQHY420CzuL1BZ0YOwSpA0MBALc1AY1qyQNr3g8Hqdh5BRXAYQZXS2sFPK/FB
lpc_rms=-17.85
offset=2819
sample=Clarinet_sustain_PP_E5.opus
</region>

<region>
hivel=127
key=F#5
loop_end=260678
loop_mode=loop_continuous
loop_start=70405
loop_xfade=23055
lovel=0
lpc=Ax8pQ5IVosPO7mxD1AzRwleUVkLBv+k/omNMQHeUiMGC7KhBkh56wesJQT+rrZu/NErYQDIXyD+9e8tBvwchwXF3HsE5zRVBTM3+wFygH8CKP4hBJA5qwfgi+kGVETnB
lpc_rms=-21.79
offset=1468
sample=Clarinet_sustain_PP_F#5.opus
</region>

<region>
hivel=127
key=F5
loop_end=270118
loop_mode=loop_continuous
loop_start=72954
loop_xfade=23890
lovel=0
lpc=gAlNQxxg5sP7vslDNDwsw8DEk0IiXILBbLfRP89zEMJTCxFCeEoFwUcb7kDk0B9AOT5FQZg+MsF0uhJBlHUpwT/TAMHUKrlBSftBQPGu80CDB4bAmfQLQf5vTMKYPVRC
lpc_rms=-17.99
offset=1916
sample=Clarinet_sustain_PP_F5.opus
</region>

<region>
hivel=127
key=A#4
loop_end=270921
loop_mode=loop_continuous
loop_start=73171
loop_xfade=23961
lovel=0
lpc=Kb+qQq7AG8PXV59CKJWPwe/b0kFWVVnBOD7QQBSjuMCeGX9AlK2CwB70lr6SXLHANqo/v2u/r0AQ6LhAneZ8wAnjYj9y/InAckJeQBXjHb4naVnA/HPIQJmIMMDYL1xA
lpc_rms=-29.13
offset=220
sample=Clarinet_sustain_PP_A#4.opus
</region>

<region>
hivel=127
key=A4
loop_end=276403
loop_mode=loop_continuous
loop_start=74651
loop_xfade=24446
lovel=0
lpc=oRQqQ9SgnMPCqjRDzi46wqIbDEJdpK/BDS/vQbdiJcLSHYtBe8AKQUaIesFNFf9AmcoZwG+keL/QgsVA8WDWwGekKUD5aUhAZv4Xv+TBrcAC7JHAQjkWQOeSOUEWAVJA
lpc_rms=-22.84
offset=819
sample=Clarinet_sustain_PP_A4.opus
</region>

<region>
hivel=127
key=B4
loop_end=281509
loop_mode=loop_continuous
loop_start=76031
loop_xfade=24898
lovel=0
lpc=Nf0YQ2w1icPChhhDr7KJwrlcmEJ7pibCElXgQS7GusH191ZBepP0wO2El0Dn1CPBANvFv5ObJkBOWABBEQq2wMXd0UDiWkLBjHeDQaZ998BTFr69BZoqQYIAg8DhmtO+
lpc_rms=-19.68
offset=882
sample=Clarinet_sustain_PP_B4.opus
</region>

<region>
hivel=127
key=C5
loop_end=265017
loop_mode=loop_continuous
loop_start=71576
loop_xfade=23439
lovel=0
lpc=TNcmQ9ZXkMMNJRpD0hkmwmAcGEJeA4LBu90TP+Bz+MDbGkJApTSOwL82d0EaX8DA3vhlwQZFP0HcEy0/vRPgvp0vtMDqo1XAtQpFQVWUSj+kKHFAikccQJRTgUEBeZPB
lpc_rms=-23.62
offset=531
sample=Clarinet_sustain_PP_C5.opus
</region>

<region>
hivel=127
key=G#4
loop_end=273418
loop_mode=loop_continuous
loop_start=73845
loop_xfade=24182
lovel=0
lpc=xC6WQ45NBcSMIphDjLoJw+AMm0K+YbXBQdmlQng8vcJzgetBQ/sjQjqi68EnNTZBlM2wwV0VFcFmeAFBGKGOwQ3gn0FMOCPBRzPPQXLbrMBe46zAvaCGwLY+okABrfRA
lpc_rms=-17.68
offset=902
sample=Clarinet_sustain_PP_G#4.opus
</region>

<region>
hivel=127
key=G4
loop_end=272737
loop_mode=loop_continuous
loop_start=73661
loop_xfade=24122
lovel=0
lpc=wIgsQwcVlcNvbfhCaaOfwYliKEISlc3AL1J/QWmE1sEA22bAQ+0XQYknR0A3P4nA7ZydwJ0olsDgNOdArWPOvzoArL9nDpxALlrIQG2tUkBVrwbBPTa+wJu/rcE8xgBC
lpc_rms=-24.26
offset=372
sample=Clarinet_sustain_PP_G4.opus
</region>

<region>
hivel=127
key=D#4
loop_end=281895
loop_mode=loop_continuous
loop_start=76135
loop_xfade=24932
lovel=0
lpc=Yx4DQ6Oeb8PLuwdD3El6wjLvw0EgAuVAErDMQe0AvcESRuZAIhKKQRbbf8Ez8ADBNGznvyTo9b8HzelADILbwJEimECytLhA1sr+P1JNkkCLfTnBWhoJwBPHicHm+rJB
lpc_rms=-25.41
offset=294
sample=Clarinet_sustain_PP_D#4.opus
</region>

<region>
hivel=127
key=D4
loop_end=278779
loop_mode=loop_continuous
loop_start=75293
loop_xfade=24657
lovel=0
lpc=vN3LQp0NUcMRtQJDL1UcwtOfmUGSPzFArUPGQDHypMFfPoxAtTkrQXeCAT/tHJPAnKBXwFUWkcBD/Os/yLvSPt3Kqj/6b/xA3zzmPxpEhcAghRHAf+bjvll9f8FNVIRB
lpc_rms=-27.22
offset=163
sample=Clarinet_sustain_PP_D4.opus
</region>

<region>
hivel=127
key=E4
loop_end=257262
loop_mode=loop_continuous
loop_start=69482
loop_xfade=22753
lovel=0
lpc=FbMNQzbMh8OUARZDRswPwjDOrkFZ89/APRyVQWjTmcECHd8/BsMMQVrkssBAOy4+gc1EQMxjBMCVqgTAZZgQwT9HKT+GlyhB6QHiQDkErD23q8vAEfRYwH8Q08GjRuxB
lpc_rms=-24.79
offset=2573
sample=Clarinet_sustain_PP_E4.opus
</region>

<region>
hivel=127
key=F#4
loop_end=265662
loop_mode=loop_continuous
loop_start=71751
loop_xfade=23496
lovel=0
lpc=FkMBQqtmcMLheNZBpKS3v82iAkFDWCPAcMiaP5gPlsCWQZy+MIH4P+gA1Dworsu/YTT/vf+F8D4W6t8/VEYevyFqPr9v9r0+8GgUPxxIXD8XgZm/AoEZv734e8DKaaRA
lpc_rms=-38.54
sample=Clarinet_sustain_PP_F#4.opus
</region>

<region>
hivel=127
key=F4
loop_end=254211
loop_mode=loop_continuous
loop_start=68658
loop_xfade=22484
lovel=0
lpc=c29hQhaG0sJYvGhCnM+dwalGREGDuYq/3FQKQQfUC8FL9bg/bPViQDuOfcDxzhPA51nQvu3AL78DBJtA8kQ5wKZwNz/UmQpAyo/7PCZ6qD+zqFfAKG0wPzhFLsGHIDxB
lpc_rms=-32.64
sample=Clarinet_sustain_PP_F4.opus
</region>

<region>
hivel=127
key=A#3
loop_end=246922
loop_mode=loop_continuous
loop_start=66689
loop_xfade=21839
lovel=0
lpc=YQyAQqExyMKUBSVC8pLGweFb3kBag2pAF5I1Qca4R8BkWI1AbW0PQB5HsT+lotq/xfwZwEZLF8C4KYE/DBGAwGYnJL/UuXdAQm5DP2hSAsDlXXw/KgQGwHerhcAUCsxA
lpc_rms=-32.76
sample=Clarinet_sustain_PP_A#3.opus
</region>

<region>
hikey=A3
hivel=127
lokey=G3
loop_end=267146
loop_mode=loop_continuous
loop_start=72151
loop_xfade=23628
lovel=0
lpc=GGVJQ1Mih8PYTVhCastHwtSGrUFJtAxAvdcCQqHWS0DRoC1BECIiQfsfBEGeVjPAEIyjwNH3uL8mD9i/+ZXhwFajw8B9UQBBBpu0wJijPcGztynAKKWEv4DGmMCufKJB
lpc_rms=-24.92
offset=1046
pitch_keycenter=A3
sample=Clarinet_sustain_PP_A3.opus
</region>

<region>
hivel=127
key=B3
loop_end=236331
loop_mode=loop_continuous
loop_start=63829
loop_xfade=20902
lovel=0
lpc=UhU6QzEPeMOSUG5CWT5Wwj6/mUGsT95ALc3UQXKgKcDbvRRB1Ji2QJRf10CtilNAE/PbvyoYksAjl/++2t+xwFpRx8AtOLtAqHsnwJ+HKsFzER7AFWvAvySQDMFkxrtB
lpc_rms=-25.46
offset=706
sample=Clarinet_sustain_PP_B3.opus
</region>

<region>
hivel=127
key=C#4
loop_end=262799
loop_mode=loop_continuous
loop_start=70977
loop_xfade=23243
lovel=0
lpc=XE4DQ9NgYcNT0q9CxS4OwqM3FEI0MP1AI6GLQb5YasEtxdc/TunXPwimGMCRRGbAKwJQwOKnysBvOH8/A7+uwMDeNzxr96lBOi4bQXrz3cDz2QfBCGDywMAswMHy7udB
lpc_rms=-26.23
offset=218
sample=Clarinet_sustain_PP_C#4.opus
</region>

<region>
hivel=127
key=C4
loop_end=260193
loop_mode=loop_continuous
loop_start=70274
loop_xfade=23013
lovel=0
lpc=fjYBQ+Q5UcPClrVCtE0/wkGr0EEsALZAziRsQXJCR8Gy8shAJdIvQDyKBEBW056/AdGXPxMH6cDLijg/BmpNwA9/oMBDlgNB+zI3QGcZqMDtZCtALG3Pv4PdFMHrdDtB
lpc_rms=-26.40
sample=Clarinet_sustain_PP_C4.opus
</region>
</group>

<group>
amp_veltrack=0
ampeg_attack=2
ampeg_release=0.35
group_label=MF
lpc_hicc1=84
lpc_locc1=43
volume=-5

<region>
hivel=127
key=D#6
loop_end=275962
loop_mode=loop_continuous
loop_start=74532
loop_xfade=24407
lovel=0
lpc=Ia+0QrHp6sK1Hp9CDZ6DwfzSzkE7E13Bae6nQYEkIMFytWdBam5AP6J9FEC8/N9ASNyVQGWIPECEhZFAUQBOQJ0jQkGbM2bBP3IYQsT6yMJaqqtCNlmGwZ09ksHjoUa/
lpc_rms=-13.36
offset=339
sample=Clarinet_sustain_MF_D#6.opus
</region>

<region>
hivel=127
key=D6
loop_end=266703
loop_mode=loop_continuous
loop_start=72032
loop_xfade=23588
lovel=0
lpc=CxmdQb3iwMGrL6JBzk6vwPRCeEDqUS2+4IRBQBvLMsBYtIhAcSubPzLQV8CmIdJA2IoiwJidiT8daSBA+iGNvtiyAz5wg5VAqPq1wM7tGUHelYjBLRUAQc6nbD/UiKLA
lpc_rms=-23.61
offset=800
sample=Clarinet_sustain_MF_D6.opus
</region>

<region>
hivel=127
key=E6
loop_end=264204
loop_mode=loop_continuous
loop_start=71357
loop_xfade=23367
lovel=0
lpc=/JC1QtmD8sIsaHpCY5iFQWFzp8HibqZB8Pilv1Tpp0AE5rNAyptxQDKG/D/gldRAr91GQJBfoUAhnum+TatsQV8gVcE3jP5BwFjGwrpJu0LXTJjAuBQ+wlZABkJg1UTB
lpc_rms=-12.60
offset=1094
sample=Clarinet_sustain_MF_E6.opus
</region>

<region>
hivel=127
key=F#6
loop_end=266384
loop_mode=loop_continuous
loop_start=71945
loop_xfade=23560
lovel=0
lpc=yJ6JQmrOoMKIjEhCTwzRQBXgHMFIlJxBZnrqwC//nkCKEFFA/A61QIFz5z64LsxAc22WP7F6BEF+lODAz4vEQRpflcIuvHRCcz/VwDDHAMJGJctB5HGUwYm6GUF7Bby+
lpc_rms=-15.99
offset=882
sample=Clarinet_sustain_MF_F#6.opus
</region>

<region>
hivel=127
key=F6
loop_end=282604
loop_mode=loop_continuous
loop_start=76326
loop_xfade=24995
lovel=0
lpc=K+Y6Qrp4bsKuGUxCuOp0wTGUIUG+siNBCpKaP3d2k0Bb9ghBUP2lQHRI2EAWoL5AAirzQP0vgEDIlCVBneq2PGtbkUFVdj7CO+dmQr+IyMFaDh9ANLkkQfnvOMHgogNB
lpc_rms=-13.99
offset=5467
sample=Clarinet_sustain_MF_F6.opus
</region>

<region>
hikey=C7
hivel=127
lokey=G6
loop_end=257570
loop_mode=loop_continuous
loop_start=69565
loop_xfade=22781
lovel=0
lpc=0Z4cQog1MsJbJSNCfdIFwbgXDUGfXdhAdTmWQEo/2r+dvz1B0itWv/yBG0GKSw1AbiwtQSDvisBnR7FBnnwawgEO8UGU80a/lMZ3wS4ja0GZHi/BsGXLQB1g5z555QNA
lpc_rms=-14.21
offset=1031
pitch_keycenter=G6
sample=Clarinet_sustain_MF_G6.opus
</region>

<region>
hivel=127
key=A#5
loop_end=276642
loop_mode=loop_continuous
loop_start=74716
loop_xfade=24467
lovel=0
lpc=bVYoQmbNk8L/No9CZv0VwohSHEHe8cQ/vW8+QRfWssFnVq9BBCy2wLS8n8BMwVhBs6YfwQZsjECr59tAFicuwVCvWEHc1NG/yTM4wb6BjUGw1lI/L1u6wQyWGEJqO73B
lpc_rms=-18.25
offset=820
sample=Clarinet_sustain_MF_A#5.opus
</region>

<region>
hivel=127
key=A5
loop_end=285408
loop_mode=loop_continuous
loop_start=77084
loop_xfade=25243
lovel=0
lpc=Fo6PQh+EAcOl/QlDTlSiwjulDEJW0fBAbISWQPCZgcEK7qFBTc4LQbZyM8Gq5JpBurAEQGqdScGZL5VBjjwUQaDNQsEYW6lB3DSTvxmFbcH+TP5B6BvEwIEyCj/DQx5B
lpc_rms=-12.72
sample=Clarinet_sustain_MF_A5.opus
</region>

<region>
hivel=127
key=B5
loop_end=292762
loop_mode=loop_continuous
loop_start=79070
loop_xfade=25893
lovel=0
lpc=cK86Qr74XsK/Zg5CO29IwM5ULMH2KwRBciGYQMq/tcDrGE3A/AhYQSB2NsCYD5PBNtMUQpVUAcKrxEVByiY8QYWbg8ETLAFBIEcpQMxVfkBxbG/B6USVQclV2b4nEaHB
lpc_rms=-20.73
sample=Clarinet_sustain_MF_B5.opus
</region>

<region>
hivel=127
key=C#6
loop_end=282127
loop_mode=loop_continuous
loop_start=76198
loop_xfade=24953
lovel=0
lpc=sb3KQtnZ9MK/bcZCPQSFwsCLhUJ5dSnChbVUQlyjCMLNtCRCW8B4wUxDzkF6IzPBrjfjQUJsY8Eyb+NB1U4swXV62UEWXZLB3LYqQmGdG8Kj54xCf7LDwuBPJEJyVj9B
lpc_rms=-12.83
offset=785
sample=Clarinet_sustain_MF_C#6.opus
</region>

<region>
hivel=127
key=C6
loop_end=290544
loop_mode=loop_continuous
loop_start=78471
loop_xfade=25697
lovel=0
lpc=YEYeQqX0d8KztnpCRi4qwuF5DkIbttbB8DfXQeWnh8FzGE1B8xHzP9thEsAanEtAwgSIQHpd3D/wxrQ/wZ+DPyBGTkBnWpxAuE6+wMlIlUFZ08vB+qgQQtY1EsKx7l1B
lpc_rms=-17.95
offset=15797
sample=Clarinet_sustain_MF_C6.opus
</region>

<region>
hivel=127
key=G#5
loop_end=285474
loop_mode=loop_continuous
loop_start=77101
loop_xfade=25249
lovel=0
lpc=sIXSQr2vI8OsqRJDBwGqwprvdUKeGXjBCJSKQZWyLsHNSkdBLd6NQDBpcEEciHnAM79YQSNhGcFosexBJ+5kwbTd10DlSKBBNpGiwIHei0EryYDBFIGyQX5fzcB/A8hB
lpc_rms=-14.06
offset=1263
sample=Clarinet_sustain_MF_G#5.opus
</region>

<region>
hivel=127
key=G5
loop_end=278715
loop_mode=loop_continuous
loop_start=75276
loop_xfade=24651
lovel=0
lpc=8zw4QmerkcKSB2xCLUPKwVwG1UCF4Lu/mDf3QUznCMIua3xB8TG6P8JDlr986zQ/E/qKQayrEcFjgeu/kghUQF34OD6o7PVAiLhtQLJ4nz7ywZS/GvssQFbgCcH9GpFB
lpc_rms=-16.68
offset=1190
sample=Clarinet_sustain_MF_G5.opus
</region>

<region>
hivel=127
key=C#5
loop_end=287977
loop_mode=loop_continuous
loop_start=77777
loop_xfade=25470
lovel=0
lpc=ZmP+QkTYgsO46jxDhglxwkRa5EHkF94/COWtwXju70C4bIjBOF/4QTKRrcH96ZxBTXDCwdoekkEOv+DAzwysvzIB1EBBsEvBC6goQebQg0F181zBB3UMQR7eh8ElPVRB
lpc_rms=-12.38
offset=8757
sample=Clarinet_sustain_MF_C#5.opus
</region>

<region>
hivel=127
key=D#5
loop_end=275158
loop_mode=loop_continuous
loop_start=74315
loop_xfade=24336
lovel=0
lpc=o3XVQTlnjcJsJKFCNXZNwrF6ikFm2i5B+6DFweWScEEXx5JAZmBQwaInMkG2Rdu/K/IJwXoyCkEJChbAuFUEPypgNsB/bGFBfCHUwdEXyEGAi0vBUqkRQW6kOMHsE9tA
lpc_rms=-18.83
offset=1191
sample=Clarinet_sustain_MF_D#5.opus
</region>

<region>
hivel=127
key=D5
loop_end=264055
loop_mode=loop_continuous
loop_start=71316
loop_xfade=23354
lovel=0
lpc=IJMcQsvU5sLPywtDBxKmwkjsxEEIDfTAkkokQYWkesGysolBd6CfwG4YJMGqfCBBKNYrQLO1R8GHPGBBbOQAwbfTHsAE3UdBxMwQwZfzF8BfKce/5CisQR6uy8HhJCRB
lpc_rms=-16.74
offset=1637
sample=Clarinet_sustain_MF_D5.opus
</region>

<region>
hivel=127
key=E5
loop_end=284104
loop_mode=loop_continuous
loop_start=76731
loop_xfade=25127
lovel=0
lpc=4SsmQk+V5MIB5AxDBGu2wjIc7kENTi1AfrsFwYyEjcBcGJtBT6SrwdCTQ0HXjf+9cobdwI3iBkHhZh/BO0teQZRbXcHPL5FBKhCpweqGp0GLJaTBFm24Qej6ccHzroZA
lpc_rms=-14.25
offset=1060
sample=Clarinet_sustain_MF_E5.opus
</region>

<region>
hivel=127
key=F#5
loop_end=279135
loop_mode=loop_continuous
loop_start=75389
loop_xfade=24688
lovel=0
lpc=d26IQndHH8NvEixDJA/HwgM3BkIQuAHBBaPfQVbLOcJBiEBCXRkdwoAIAUILTMfATp17wZdEokG70kJAriNSwakVC8ElyyZCWkYOwjwtMkHX9FxASYedQXw8JsLs0+xB
lpc_rms=-10.74
offset=870
sample=Clarinet_sustain_MF_F#5.opus
</region>

<region>
hivel=127
key=F5
loop_end=282571
loop_mode=loop_continuous
loop_start=76318
loop_xfade=24992
lovel=0
lpc=9oLzQSuqkcJRHJtC6+g7wq7jWUF9Fi1BpkuywN3abMGLralBpyuBwf56bkFje07BOR4yQQONmcCcfOm/cXgGQWpDN8GWG7xAsJpFQO1ZlD9p9qjAMM77QMNpP8HCahBB
lpc_rms=-17.25
offset=1247
sample=Clarinet_sustain_MF_F5.opus
</region>

<region>
hivel=127
key=B4
loop_end=281306
loop_mode=loop_continuous
loop_start=75976
loop_xfade=24880
lovel=0
lpc=yd77Qts+jsN6aoFDkwYYw71P6EKFoYvCwQBkQUNWMsGVoUhBSToiQQtzssAdb5vBGjEHQRYIwUC8FO/A+UWMQbL9fcCknMLBLDD0QenXgsHNHJ2/SMnFQQmv+MFVwJlB
lpc_rms=-16.00
offset=697
sample=Clarinet_sustain_MF_B4.opus
</region>

<region>
hivel=127
key=C5
loop_end=276677
loop_mode=loop_continuous
loop_start=74725
loop_xfade=24471
lovel=0
lpc=KlyXQgGEKcPNqhBDfBBLwj6ukUEP/CHBFdIswVIC9EAmejJBLI87wYV+k0D7BYu/A+4cwTq0hkEN8xvBMGgGQS4WQsGkGTdAbCnQQFoE8MCQ7RNBijdUQWbi6cGWM5BB
lpc_rms=-17.75
offset=346
sample=Clarinet_sustain_MF_C5.opus
</region>

<region>
hivel=127
key=A#4
loop_end=280438
loop_mode=loop_continuous
loop_start=75741
loop_xfade=24803
lovel=0
lpc=nMaRQlnZMcPmaiJDrt2Xwk2XPkLlO93BlddnvxO52sAMQVJBobIgP0zi/z+jn3jBTg/QQD2v+UBYbhLAD3ptPio1mMBB9PTA1IZiQcqUBMAh6ufAtEbqQQWMMMLbv7tB
lpc_rms=-16.55
offset=524
sample=Clarinet_sustain_MF_A#4.opus
</region>

<region>
hivel=127
key=A4
loop_end=272887
loop_mode=loop_continuous
loop_start=73702
loop_xfade=24135
lovel=0
lpc=YHuMQh2ZL8OyGStDP5m5wvz4cUIbLi3C9XaIQXXTrMGjcwJCVJpNwdOPgcFewIFBuHqfQMnsocBWBB3Bl6LUQK0Mo8Dar0JBhr93wEq14b9++BvBQdKRQePNa8ESFAFB
lpc_rms=-16.90
offset=606
sample=Clarinet_sustain_MF_A4.opus
</region>

<region>
hivel=127
key=G#4
loop_end=283586
loop_mode=loop_continuous
loop_start=76592
loop_xfade=25082
lovel=0
lpc=385AQ5+6AcQ2Nw1EXli8wxTVh0O++z/DbrnLQrzh0cJD+9VCljXkwcdqY8KUpKJCWY4bwtBzkUGkF1HCCmEYQjll2UCXdIDBXbMLQvHgPMJaBcZBNOPYwH+Ev8AP30tB
lpc_rms=-10.99
offset=568
sample=Clarinet_sustain_MF_G#4.opus
</region>

<region>
hivel=127
key=G4
loop_end=280310
loop_mode=loop_continuous
loop_start=75707
loop_xfade=24792
lovel=0
lpc=Fq2bQtyxasPtRo5DRQgxwyWXp0LqMojCHZNrQjYORcIlHDZCrhH6wI3wNsL9lU9ClVa4wJaLAMI/lpBBhKG/QGadBz+ipCjBOlZdQSnWmMGPnUVAupAFQveWL8I575pB
lpc_rms=-15.39
offset=627
sample=Clarinet_sustain_MF_G4.opus
</region>

<region>
hivel=127
key=F#4
loop_end=281543
loop_mode=loop_continuous
loop_start=76040
loop_xfade=24901
lovel=0
lpc=MqcDQgyzr8KtcL1CzmN8wngEOkKlXgTCRmqpQQY5xMFYx4ZBq/l7QCuifsEBdXRBbseuwAiZt8C1LhFBbELnwMvNQEDcLgDAH0F5QAkE+T603ILAXBOZQCcBy8CxWoNA
lpc_rms=-26.97
offset=174
sample=Clarinet_sustain_MF_F#4.opus
</region>

<region>
hivel=127
key=F4
loop_end=279772
loop_mode=loop_continuous
loop_start=75561
loop_xfade=24744
lovel=0
lpc=HHhPQilCKcN1A3FDIjVSwxCWDkOh2p7Ce6zJQdGQhMDFBwFB2saYP+AZs8HZf+JB/69TwS1Vmr8DaBk/e1Nvv1R8F0G/H9/AfOcgwURwzUHdOhnCXsM9Qk/rFsIcBldB
lpc_rms=-18.57
offset=1044
sample=Clarinet_sustain_MF_F4.opus
</region>

<region>
hivel=127
key=C#4
loop_end=285940
loop_mode=loop_continuous
loop_start=77227
loop_xfade=25290
lovel=0
lpc=dH2LQiwTV8NSum5DbFLWwmBly0FW+5fBGQAbwV/XDUI7rcfBnoZtQSZeiMEd+lRBJSn6v8fd98AKORxBf94Dwdv2oUBOb6lAcm+Dwb+v4EAy6A9BS4wDQen83MHlzVZB
lpc_rms=-18.10
offset=5519
sample=Clarinet_sustain_MF_C#4.opus
</region>

<region>
hivel=127
key=C4
loop_end=283422
loop_mode=loop_continuous
loop_start=76547
loop_xfade=25067
lovel=0
lpc=2lKRQly5WsP7U4JDsUwYwxCcV0KH2NzBIvKDQXZti8FCq91BcumCwb68vcBFh4lBx0U4wc+E78CTLmhB1DUOwdYw8j8O80BBIRWIwSCFTMBLUFFBITooQMhxEsFbzmhA
lpc_rms=-19.77
offset=2795
sample=Clarinet_sustain_MF_C4.opus
</region>

<region>
hivel=127
key=D#4
loop_end=281811
loop_mode=loop_continuous
loop_start=76112
loop_xfade=24925
lovel=0
lpc=SvyEQl6CIcMTnvtCBGY4wgulNkLzmbTBgxGywUHVK0Fcihi/ZndYQdBOHcF/pnFAqiWcwBSWDUBjfsQ/ZvGhwOnDeUBFx7i/aIpMQDZ7TUA4vPTAIm0NQFallsA3XKxA
lpc_rms=-16.20
offset=1370
sample=Clarinet_sustain_MF_D#4.opus
</region>

<region>
hivel=127
key=D4
loop_end=281405
loop_mode=loop_continuous
loop_start=76003
loop_xfade=24889
lovel=0
lpc=z128QufdmsNk4cpD9MqMw6J6CUOmHT3CnpkFwhqJUULzjIvBplizP9korMBXyiJBIyyOQBWS9cFd+J1BrO+FQOzqqD4g4dpADKrwwUBYwEHLZ0DB8UDWQS9VAsKOSlFB
lpc_rms=-15.06
offset=845
sample=Clarinet_sustain_MF_D4.opus
</region>

<region>
hivel=127
key=E4
loop_end=279296
loop_mode=loop_continuous
loop_start=75433
loop_xfade=24702
lovel=0
lpc=KwrAQoGxe8M4p35DCv4Nw3ernEKSEg/CTmkKwS7bUsG6hfBBoDu5QGH7L8F2fum/02h8wGpI00B7nBpA75WCwAR85MDhuWpBfAkcwcO68D8MltDA3dSHP9sJzEDF+4+9
lpc_rms=-15.63
offset=1379
sample=Clarinet_sustain_MF_E4.opus
</region>

<region>
hivel=127
key=A#3
loop_end=268885
loop_mode=loop_continuous
loop_start=72621
loop_xfade=23781
lovel=0
lpc=mSZwQkGJK8PaDC5D9peWwt924kHckInBpTbZwB0K9j+F1U9BngWLP/5tT8FiH19BknOqwZBth0FFUXPAvF4TwG8adUA7G0VAQXMPwUZTDkClwGBARH5oPxyUsMBXpE1A
lpc_rms=-23.25
offset=3401
sample=Clarinet_sustain_MF_A#3.opus
</region>

<region>
hikey=A3
hivel=127
lokey=G3
loop_end=276022
loop_mode=loop_continuous
loop_start=74549
loop_xfade=24413
lovel=0
lpc=dv1sQjnDK8OZEzBDfxSDws7ppUCOxwbBmecKPyJ3KkDr5+tAQ6VIP7jXlMHVE8lBue2owRTYNkHnkZa/NiMMwRS3G0GzzNdAGahmwUkKtb8EbT9BiJjRwGa6iD/8D4U9
lpc_rms=-18.91
offset=2543
pitch_keycenter=A3
sample=Clarinet_sustain_MF_A3.opus
</region>

<region>
hivel=127
key=B3
loop_end=282313
loop_mode=loop_continuous
loop_start=76248
loop_xfade=24969
lovel=0
lpc=3JNxQnN+NMP4v1BDb/7kwgkO+EFoZo6/H4hGwGrZj8Fj6xFC/DDwwWpdYkEH6+BAYXvYweawzUG1nE/BYrdVP4UQ5UDFOSW/Hjoxwc8qP0E3l4DAOwNROjIjM8ATXThA
lpc_rms=-19.48
offset=2230
sample=Clarinet_sustain_MF_B3.opus
</region>
</group>

<group>
amp_veltrack=0
ampeg_attack=2
ampeg_release=0.35
group_label=FF
lpc_hicc1=127
lpc_locc1=85
volume=-5

<region>
hivel=127
key=C#6
loop_end=269411
loop_mode=loop_continuous
loop_start=72763
loop_xfade=23828
lovel=0
lpc=k9YbQm2cOMLanxRCFKCVwaXAdUEsVILAR8Q4QUMp4cAW619B8+ybwL5gDUFn76G+8VnQQOwcHb9VUBJBuIuMwOq2S0E4leDANm9nQRKzEsHey6pBFRcIwlFchkEgtiNA
lpc_rms=-11.89
offset=846
sample=Clarinet_sustain_FF_C#6.opus
</region>

<region>
hivel=127
key=C6
loop_end=278001
loop_mode=loop_continuous
loop_start=75083
loop_xfade=24588
lovel=0
lpc=cCOMQsyql8Iy/o1CI9IzwnOvGUI3pJTB0BGQQfijnb8eEeY/5gw/QdgHa8AenA9ByG9HQGuTuT80djNBQux9wL98CUGfRt5A9oHSwFRyw0FX1tfBCHZGQjyYdMLtO2xB
lpc_rms=-10.48
offset=767
sample=Clarinet_sustain_FF_C6.opus
</region>

<region>
hivel=127
key=D#6
loop_end=274345
loop_mode=loop_continuous
loop_start=74096
loop_xfade=24264
lovel=0
lpc=PS3DQudx+8Lzp6RC31NbvvRSI8HIO8lAhMV7QWAMrEAel21B6VD3QB6TMEH4ayxB9SoqQT/KFEHZoFBBMiaaQMlfqUH/GfrAME0sQrDjyMIc17tCqt+iP2dcMcKfvyVC
lpc_rms=-5.89
offset=710
sample=Clarinet_sustain_FF_D#6.opus
</region>

<region>
hivel=127
key=D6
loop_end=276139
loop_mode=loop_continuous
loop_start=74580
loop_xfade=24423
lovel=0
lpc=Nf1wQmy0fcJaW6xBag8gQWvkWz8ZXQFAUfX9QGGalsDsWfRAaVI9QFnFRcDt+ipBh5F0v5FQuz/UoX9A3SunQGvbYsDooT1BDXoEwUJ7mUGYMz/Cc31ZQbKj9EGvCq7B
lpc_rms=-9.16
offset=494
sample=Clarinet_sustain_FF_D6.opus
</region>

<region>
hivel=127
key=E6
loop_end=278294
loop_mode=loop_continuous
loop_start=75162
loop_xfade=24614
lovel=0
lpc=tZwxQ+T7fMNlyg5DFlV5QTNqicJN6HhCZ9ttQExoEj9pyYlBMBWeQH5kU0CIpGpBGZKeQDH5FEEyvtQ/PbrLQe0mxsEfc31CZRBGw0XkR0PpSKHBagG9wjIz1EKWbEHC
lpc_rms=-3.46
offset=789
sample=Clarinet_sustain_FF_E6.opus
</region>

<region>
hivel=127
key=F#6
loop_end=276958
loop_mode=loop_continuous
loop_start=74801
loop_xfade=24495
lovel=0
lpc=9CSaQn3y7MJDbLtCa42XwSJLQMGUkwZC+QfbwH0qyUAtIxZBmDofQS8sa0AGx3dBcD94vr/tjUE4UZ7AxML+QVg+ocKQRr9Cek2mwfnHBML3cF9CF4QXwqDvikEztYU/
lpc_rms=-9.90
offset=5877
sample=Clarinet_sustain_FF_F#6.opus
</region>

<region>
hivel=127
key=F6
loop_end=275774
loop_mode=loop_continuous
loop_start=74482
loop_xfade=24391
lovel=0
lpc=nuFSQoCmm8JlhGlChhV1wY6f7cBZk5pBWetBwWpBukCZ9KQ+gSKUQAZOJ7/HO5ZAHMm/P6bzq7w23fRAaJPHwBzRhUGkq2bCcHp4Qu3no8El4HTBpPDkQc2lscEpDDlB
lpc_rms=-8.96
offset=830
sample=Clarinet_sustain_FF_F6.opus
</region>

<region>
hikey=C7
hivel=127
lokey=G6
loop_end=267268
loop_mode=loop_continuous
loop_start=72184
loop_xfade=23638
lovel=0
lpc=StB0Qp6ChsJwlRpCnTFZQVWsgcE+LOFBluahwNgjicDMrp5BwzS4vxPiFEEk5f8/ko5HQcQN/sAv2N1BMrxywj2QHUIjjohBYK8pwgv3/kGkkIjBOfEQviyUXEH+eg/B
lpc_rms=-13.52
offset=637
pitch_keycenter=G6
sample=Clarinet_sustain_FF_G6.opus
</region>

<region>
hivel=127
key=A#5
loop_end=283104
loop_mode=loop_continuous
loop_start=76461
loop_xfade=25039
lovel=0
lpc=SmlJQuAXp8LJM71CiJVgwiK4nEH09zVBvlLyQBUaAsKolmZCVsAVws9U+EBmFwJCBhjnwadWrECIXx5C2lw9wrDVDUIpEwNB1qzUwYI5xEFsZJVBAmkvwhDIV0L8SLHB
lpc_rms=-8.28
offset=919
sample=Clarinet_sustain_FF_A#5.opus
</region>

<region>
hivel=127
key=A5
loop_end=281150
loop_mode=loop_continuous
loop_start=75934
loop_xfade=24866
lovel=0
lpc=xsyKQmdAv8IB+ctC3M0VwibLQEErYBpBJhgEQosxLsJTAVxCDHOFwJcSBMEMLKBBnGq1QVjLtcFGfNFBsFm1QaWR7sEjQRdCkMfwQC2VrcDqrh5AOZc6QqOUNcKOETtC
lpc_rms=-9.98
offset=1071
sample=Clarinet_sustain_FF_A5.opus
</region>

<region>
hivel=127
key=B5
loop_end=291411
loop_mode=loop_continuous
loop_start=78705
loop_xfade=25774
lovel=0
lpc=hFWEQuQDnMLxf5FCGAYPwtFAyUE0s3fBG+YAQheQ18FXQ+BBScc3wc/owUERfwDCTQheQkrTPMKePCFCO2tQwTfiWkF9Mi3BOKTTQcAXfcHt3nVBBohRwOi5rkFQmuXB
lpc_rms=-11.50
offset=12943
sample=Clarinet_sustain_FF_B5.opus
</region>

<region>
hivel=127
key=F#5
loop_end=284698
loop_mode=loop_continuous
loop_start=76892
loop_xfade=25180
lovel=0
lpc=bvu0QbSSYMKwo49CVr2AwjKJQUIhD6/BlgAxPxX4Dz6DkB9BemVQwaJsZUGxw/jAWUQSwFG2h0CoNp1AaS0PwYYFDEFUNYnAB5XNwAOljUFP3oHBl/tkQbuEUMEQh/hA
lpc_rms=-11.08
offset=1363
sample=Clarinet_sustain_FF_F#5.opus
</region>

<region>
hivel=127
key=F5
loop_end=278886
loop_mode=loop_continuous
loop_start=75322
loop_xfade=24666
lovel=0
lpc=VfvgQQEam8LXfslCzyChwmVaOEIfYGrB5/kYPjUr3sAiFY9BaHpHwbN7gr7hTMRAdk1oQHY6iMEdtZ9BunZDwT6NAUEQuM3Ayp2/QAqe8sCpR5pAwJ0wQVwtmsFwjiZB
lpc_rms=-10.83
offset=812
sample=Clarinet_sustain_FF_F5.opus
</region>

<region>
hivel=127
key=G#5
loop_end=281207
loop_mode=loop_continuous
loop_start=75949
loop_xfade=24871
lovel=0
lpc=4//UQamEOMJhgVVCdTAxwptuAUKDVobBAcOyQclCw8HFE71BiNGCwRUhNEF6ZQ9AaJ+Jv3d/0j1Pp55A8i+FwD1gDEBBUSRBzVXZwL4Ii0D+lGm/yTwcP63MaUDhLXRA
lpc_rms=-10.83
offset=2056
sample=Clarinet_sustain_FF_G#5.opus
</region>

<region>
hivel=127
key=G5
loop_end=284028
loop_mode=loop_continuous
loop_start=76711
loop_xfade=25121
lovel=0
lpc=46twQZa+BMJ50B9C+Dr2wUZwm0HkQRXBqm8LQV0ZM8FSKShBTqg3wAieHr899bg/1e02P/ae678/MoRAJOj0v2Z7yz+B0Z6/3o1hP2jGdEBywKXAFZX0QKJQBsEW78VA
lpc_rms=-11.84
offset=1148
sample=Clarinet_sustain_FF_G5.opus
</region>

<region>
hivel=127
key=B4
loop_end=270994
loop_mode=loop_continuous
loop_start=73191
loop_xfade=23968
lovel=0
lpc=GNRNQjsaBsPdbRlDuyPdwhQVm0KJuVbCiAj5QSVRucFfF39BWXThwAuEAEGg8hrBzfCRQFf0xkCKKYXB7LojQVpKW0AvptnA6Hw/QfdVpMFoJaZBuDUZwbrK576c4YlA
lpc_rms=-10.72
offset=744
sample=Clarinet_sustain_FF_B4.opus
</region>

<region>
hivel=127
key=C#5
loop_end=280190
loop_mode=loop_continuous
loop_start=75674
loop_xfade=24781
lovel=0
lpc=Gr0eQoP/sMI2iJpCdejqwbKoL0E3Xx/BLt7YP4nib8BpBCJBY0AHwURaBkF1yLjAEwnjPzgxisDwihBA9TM9QDzuJ78WlgLAV4TwQI6ghcHFxXlBCLGeQNR9McE4kHBA
lpc_rms=-12.68
offset=537
sample=Clarinet_sustain_FF_C#5.opus
</region>

<region>
hivel=127
key=C5
loop_end=288386
loop_mode=loop_continuous
loop_start=77888
loop_xfade=25506
lovel=0
lpc=JMpiQoOx88J8hN9CZC9Mwl6+rkFqLNvAgw22wKkFnsBMmURB0xDJv2yrQT+6PqXAQ7NvwP1/JEETyszAb6OMQH35fMDjlMg+ZwYgQApP7cD+cCdBV80dQYKmpcFOyWZB
lpc_rms=-13.46
offset=6507
sample=Clarinet_sustain_FF_C5.opus
</region>

<region>
hivel=127
key=D#5
loop_end=272240
loop_mode=loop_continuous
loop_start=73527
loop_xfade=24078
lovel=0
lpc=iDh3QQOoFMKA0B9CGPXTwcyaYEHBYFPA0nRNwI3KCj0/ybRAdApSwJ8fvD5zDjw/YENswK/crD95KsxAi6MLwYGCkEDMB0FAeUzvwIRQ4EBgQYG/ec4tv0MyVMBprlJA
lpc_rms=-15.49
offset=798
sample=Clarinet_sustain_FF_D#5.opus
</region>

<region>
hivel=127
key=D5
loop_end=279774
loop_mode=loop_continuous
loop_start=75562
loop_xfade=24744
lovel=0
lpc=LUegQZVWW8JneIFCiEYewgNTMkFHfRxAaxRUv7WgIMGGNmNB2bzRwOIKZkA1i8HAPLuZQCgk08AjEilBvwLIwJEGjrxloTg+8CudQAO2I8HoIDpBDB0zwOCYq8DzuXJA
lpc_rms=-14.23
offset=1195
sample=Clarinet_sustain_FF_D5.opus
</region>

<region>
hivel=127
key=E5
loop_end=285882
loop_mode=loop_continuous
loop_start=77212
loop_xfade=25285
lovel=0
lpc=urqBQXYBMcI5XFhCcnYGwrPVCkFlCBu/HHzhQObnfsENKJRBx9gUwfufCcB/ODNAzH+1QBayE8Ftna9AlcEWP4JJtMCJKwRBaTJRwPBlLsAP63u7rdAMQfH7IsETsZJA
lpc_rms=-11.35
offset=11318
sample=Clarinet_sustain_FF_E5.opus
</region>

<region>
hivel=127
key=A#4
loop_end=283231
loop_mode=loop_continuous
loop_start=76496
loop_xfade=25050
lovel=0
lpc=ShiSQR5LNMLeSTxCAYvUwTKAWkHpIyzB/LgOQZgzPMHZ71ZBPa6hwNPtfcBfz3RAbKUeQBdZ2MDK8z5A4IDHP0VXWEDr9R7Byi4LQYaMDMF+LExBCm8CwTisVr//0ExA
lpc_rms=-14.91
offset=330
sample=Clarinet_sustain_FF_A#4.opus
</region>

<region>
hivel=127
key=A4
loop_end=278038
loop_mode=loop_continuous
loop_start=75093
loop_xfade=24591
lovel=0
lpc=tAXpQYy/osJi8cdCh5GKwsuuCUJoLKTBzk2mQeYs4sEC0tpBh5jRwITtfMES6JdB12GdwKvsSsG3Np5Ble+AwUdvLkGQJ6zA7F8cQHXK2MCfB9ZAHYCyQKIXXMFrgQNB
lpc_rms=-13.93
offset=683
sample=Clarinet_sustain_FF_A4.opus
</region>

<region>
hivel=127
key=F#4
loop_end=280882
loop_mode=loop_continuous
loop_start=75861
loop_xfade=24843
lovel=0
lpc=yDKKQaLuS8KiWHBC3REDwq5cBEGKCKrAAK0UQYxEQsF6JjdB+DeZwChp2r9IM4lAgjtmwPl2vL9Y5qhADoVuwFKBE0Db4lC93BmfwD17gkCa14A/e6GSP8HUscB9p01A
lpc_rms=-21.27
offset=385
sample=Clarinet_sustain_FF_F#4.opus
</region>

<region>
hivel=127
key=G#4
loop_end=274057
loop_mode=loop_continuous
loop_start=74018
loop_xfade=24239
lovel=0
lpc=SMIUQqSG2ML4NgNDTgiowrIRFEIxAO3BRC1BQkukjcIRDINCG3jSwZA4k8BGO5pAnXswQYVh1ME0a8RBULowwcm9vEAQ9VLAXwx8v89x/sDxAKFBeAMVwYxhB8EbDfNA
lpc_rms=-9.02
offset=995
sample=Clarinet_sustain_FF_G#4.opus
</region>

<region>
hivel=127
key=G4
loop_end=277391
loop_mode=loop_continuous
loop_start=74919
loop_xfade=24534
lovel=0
lpc=EK7aQR9foMJDSMVCdst/whkIpEEJPbo/DxhfPyEhoMFT89lBlJH0wAiyLsERCA1BxaOyQINim8FHzLhBMYmpwWHJrEGbupPBU9gjQRcObcBNYIbA9t1iQXcAdcHX6dJA
lpc_rms=-12.95
offset=990
sample=Clarinet_sustain_FF_G4.opus
</region>

<region>
hivel=127
key=C#4
loop_end=281646
loop_mode=loop_continuous
loop_start=76068
loop_xfade=24910
lovel=0
lpc=v8siQhKACcNHFUZD+HUkw1jpuEL3zA/CeVYGQQWREcFmy1FB8NnwvyWbDcFDl0dB9boHwcRdJcHFc8pB7nvGwVaXmEEqeRDBC/yOPjtMpsA9IoFBQp5swd/ZpEDSUfW+
lpc_rms=-16.97
offset=1575
sample=Clarinet_sustain_FF_C#4.opus
</region>

<region>
hivel=127
key=C4
loop_end=277862
loop_mode=loop_continuous
loop_start=75046
loop_xfade=24575
lovel=0
lpc=HJrVQSmirsJ+WfdCjTHKwpzhYEIxi8jBoigvQQLrOMFSgZpBToeTwSNt+UBQsw5AalaLwPsZFMDERAVBDV4ewdmrAEFU9Ny/Gl2avzjjv8DzBU1BGcAJwUW0iD844lY/
lpc_rms=-17.90
offset=1674
sample=Clarinet_sustain_FF_C4.opus
</region>

<region>
hivel=127
key=D#4
loop_end=277369
loop_mode=loop_continuous
loop_start=74912
loop_xfade=24532
lovel=0
lpc=QhnAQehTlMICYL1C7B6EwhMJBEIfhX7Blwm8QB22KMHm6rBB4Z13waPqF0BwxHfAHhwEQXpwv8AUmhdAH4oFvsfgEb5I5VG+s9WrPc4cH788Grs/T3uwPkbSScCiTARA
lpc_rms=-15.98
offset=1359
sample=Clarinet_sustain_FF_D#4.opus
</region>

<region>
hivel=127
key=D4
loop_end=274562
loop_mode=loop_continuous
loop_start=74154
loop_xfade=24284
lovel=0
lpc=TYHpQWNitMKuJORCCKejwmFqQEK8x8TBeX1Rv2A9qUDMuM5ACX+MwBk2hEAx43TBsKBZQcyB58Bd20xBnECKwXO8P0G0j5PA8vdTvsjhQ799yTJB6++KwaatIEEBf/e/
lpc_rms=-17.28
offset=1621
sample=Clarinet_sustain_FF_D4.opus
</region>

<region>
hivel=127
key=E4
loop_end=278412
loop_mode=loop_continuous
loop_start=75194
loop_xfade=24624
lovel=0
lpc=9UjeQfn6o8L8qMZCg62AwgD90kFb9wLBPKaFQFshZ8ERFatBXGfwwNay18DzPrdA62IYv4Bejb+DfBXAGrprQD/uuL6v38M/tziBwOPlJkDio6rADjtgQYs7b8EHYb1A
lpc_rms=-15.80
offset=556
sample=Clarinet_sustain_FF_E4.opus
</region>

<region>
hivel=127
key=F4
loop_end=282965
loop_mode=loop_continuous
loop_start=76424
loop_xfade=25027
lovel=0
lpc=KJa2QUckicLOvqVCK/pCwmHfikFx64HB73LNQYcV7sFShq9BvNImwHEVMcH9NgFBcsmAQAvgacHs545BmC2UwQvekUFrtx/BGdQQP90O3b+ER1lAvoOpQCRwKsGtE59A
lpc_rms=-17.63
offset=595
sample=Clarinet_sustain_FF_F4.opus
</region>

<region>
hivel=127
key=A#3
loop_end=284689
loop_mode=loop_continuous
loop_start=76889
loop_xfade=25179
lovel=0
lpc=xDT6QXIpxMKCyvRCNLKcwsT5AkLyNinBflycwGVN20Cit4xAYgMlwd3Cs0C54EtAnaYEwVNcnUB9byU/+F67wEQAJEFOiI/AJLp4wCCvmD4UuAFBK8IgwXtyv0BB+Mi/
lpc_rms=-17.55
offset=1566
sample=Clarinet_sustain_FF_A#3.opus
</region>

<region>
hikey=A3
hivel=127
lokey=G3
loop_end=282723
loop_mode=loop_continuous
loop_start=76358
loop_xfade=25005
lovel=0
lpc=JyU/QmuTE8OjPS1D8PCzwjkwlEHR7o/A1EUXv+Psl0Cwm65A2cFdwaVuA0HpnpRAnhQowVyCb780aBJB4BB4wF7nD0DKzdq+rtOUwM0NiT5Lg/BAT4KYwIE6+r+sXAVA
lpc_rms=-16.21
offset=3209
pitch_keycenter=A3
sample=Clarinet_sustain_FF_A3.opus
</region>

<region>
hivel=127
key=B3
loop_end=281830
loop_mode=loop_continuous
loop_start=76117
loop_xfade=24926
lovel=0
lpc=6tkaQgQU98KNuyVDeYn1wiWRUkIxMdrAEbP0wPirvkDuzge/U5oDwWxngEHrmTjBKbNCwCM7h0ChdDRBd8DKwXTUzEHz8kPBLyIZQEEOvMA+b0FBwrlNwSzz90CRXtK/
lpc_rms=-14.66
offset=1656
sample=Clarinet_sustain_FF_B3.opus
</region>
</group>